<?xml version="1.0" encoding="UTF-8"?>
<!DOCTYPE svg PUBLIC "-//W3C//DTD SVG 1.1//EN" "http://www.w3.org/Graphics/SVG/1.1/DTD/svg11.dtd">
<svg xmlns="http://www.w3.org/2000/svg" version="1.1" width="1080px" height="1080px" style="shape-rendering:geometricPrecision; text-rendering:geometricPrecision; image-rendering:optimizeQuality; fill-rule:evenodd; clip-rule:evenodd" xmlns:xlink="http://www.w3.org/1999/xlink">
<g><path style="opacity:0.979" fill="#487bff" d="M 349.5,60.5 C 463.643,55.1665 554.81,97.8331 623,188.5C 677.392,269.891 691.392,357.891 665,452.5C 631.167,553 564,620.167 463.5,654C 353.553,683.673 255.553,661.673 169.5,588C 89.9871,510.795 58.8205,417.295 76,307.5C 98.6097,201.904 159.11,127.07 257.5,83C 287.218,71.0698 317.885,63.5698 349.5,60.5 Z M 352.5,106.5 C 454.796,101.899 534.63,141.566 592,225.5C 633.109,293.271 642.442,365.271 620,441.5C 593.179,518.654 542.013,572.821 466.5,604C 373.945,635.851 288.945,622.184 211.5,563C 132.686,493.563 103.52,407.063 124,303.5C 143.553,228.292 187.387,172.125 255.5,135C 286.189,119.488 318.522,109.988 352.5,106.5 Z"/></g>
<g><path style="opacity:0.97" fill="#487bff" d="M 452.5,129.5 C 461.841,128.283 470.508,130.116 478.5,135C 481.5,137.333 484.5,139.667 487.5,142C 505.167,160.333 522.833,178.667 540.5,197C 541.167,197.667 541.833,197.667 542.5,197C 546.314,194.02 549.981,190.854 553.5,187.5C 560.458,194.959 567.625,202.292 575,209.5C 575.667,210.5 575.667,211.5 575,212.5C 571.651,215.682 568.484,219.015 565.5,222.5C 575.316,233.484 585.316,244.317 595.5,255C 586.167,264.333 576.833,273.667 567.5,283C 566.833,283.667 566.167,283.667 565.5,283C 555.333,272.167 545.167,261.333 535,250.5C 528.951,257.052 522.451,263.052 515.5,268.5C 507.317,261.151 499.65,253.317 492.5,245C 498.708,238.624 505.041,232.458 511.5,226.5C 495.349,209.182 479.016,192.015 462.5,175C 459.119,172.755 455.452,172.088 451.5,173C 445.698,177.135 440.198,181.635 435,186.5C 427.346,180.179 420.346,173.179 414,165.5C 413.333,164.5 413.333,163.5 414,162.5C 423.389,147.263 436.222,136.263 452.5,129.5 Z"/></g>
<g><path style="opacity:0.966" fill="#487bff" d="M 596.5,599.5 C 603.784,598.965 610.784,600.132 617.5,603C 628.669,608.079 639.002,614.412 648.5,622C 671.034,641.534 691.867,662.7 711,685.5C 763.412,748.587 807.079,817.587 842,892.5C 857.672,905.169 874.172,916.669 891.5,927C 895.895,929.521 900.562,931.354 905.5,932.5C 907.697,932.152 909.53,931.152 911,929.5C 912.534,925.289 912.867,920.956 912,916.5C 906.788,901.977 899.122,888.977 889,877.5C 880.667,868.5 872.333,859.5 864,850.5C 858.516,844.869 856.516,838.202 858,830.5C 861.906,824.145 867.073,822.979 873.5,827C 880.798,832.241 887.632,838.074 894,844.5C 909.212,861.934 923.212,880.267 936,899.5C 942.316,910.451 946.65,922.118 949,934.5C 951.11,964.061 937.61,976.561 908.5,972C 889.987,964.745 872.654,955.412 856.5,944C 776.429,884.273 703.595,816.44 638,740.5C 621.839,720.673 606.839,700.006 593,678.5C 584.546,664.923 578.879,650.256 576,634.5C 572.659,616.478 579.492,604.811 596.5,599.5 Z M 615.5,641.5 C 620.597,641.543 625.264,643.043 629.5,646C 647.157,658.647 663.324,673.147 678,689.5C 717.448,730.604 751.114,775.937 779,825.5C 784.194,834.217 788.527,843.217 792,852.5C 742.768,811.602 697.101,766.936 655,718.5C 642.895,703.73 631.562,688.396 621,672.5C 616.565,665.136 613.398,657.303 611.5,649C 612.026,646.037 613.359,643.537 615.5,641.5 Z"/></g>
</svg>