<?xml version="1.0" encoding="UTF-8"?>
<!DOCTYPE svg PUBLIC "-//W3C//DTD SVG 1.1//EN" "http://www.w3.org/Graphics/SVG/1.1/DTD/svg11.dtd">
<svg xmlns="http://www.w3.org/2000/svg" version="1.1" width="1280px" height="282px" style="shape-rendering:geometricPrecision; text-rendering:geometricPrecision; image-rendering:optimizeQuality; fill-rule:evenodd; clip-rule:evenodd" xmlns:xlink="http://www.w3.org/1999/xlink">
<g><path style="opacity:0.959" fill="#487bff" d="M 636.5,19.5 C 655.251,18.9216 665.584,27.9216 667.5,46.5C 664.882,67.1608 653.215,75.6608 632.5,72C 623.333,69.5 617.5,63.6667 615,54.5C 611.479,35.9215 618.645,24.2548 636.5,19.5 Z"/></g>
<g><path style="opacity:0.971" fill="#487bff" d="M 397.5,24.5 C 410.504,24.3334 423.504,24.5001 436.5,25C 464.304,29.8212 476.471,46.3212 473,74.5C 464.804,107.617 456.137,140.617 447,173.5C 435.336,207.495 447.169,221.661 482.5,216C 488.755,214.455 494.588,211.955 500,208.5C 503.532,219.429 506.865,230.429 510,241.5C 510.798,243.259 510.631,244.926 509.5,246.5C 484.561,257.213 458.894,259.38 432.5,253C 413.849,246.348 403.349,233.181 401,213.5C 400.333,206.167 400.333,198.833 401,191.5C 409.858,154.067 419.025,116.734 428.5,79.5C 427.867,68.0456 421.701,62.7123 410,63.5C 401.006,63.8819 392.173,65.2152 383.5,67.5C 380.791,55.0807 378.458,42.5807 376.5,30C 376.645,29.228 376.978,28.5613 377.5,28C 384.289,26.7029 390.956,25.5363 397.5,24.5 Z"/></g>
<g><path style="opacity:0.975" fill="#487bff" d="M 1134.5,36.5 C 1151.84,36.3334 1169.17,36.5001 1186.5,37C 1207.67,38.1766 1225.84,46.0099 1241,60.5C 1246.53,67.2328 1250.2,74.8995 1252,83.5C 1259.66,125.015 1244.82,155.182 1207.5,174C 1216.5,200.333 1225.5,226.667 1234.5,253C 1218.84,253.5 1203.17,253.667 1187.5,253.5C 1180.83,231.167 1174.17,208.833 1167.5,186.5C 1154.59,188.647 1141.59,189.98 1128.5,190.5C 1125.26,211.247 1121.6,231.914 1117.5,252.5C 1103.85,253.499 1090.18,253.833 1076.5,253.5C 1089,182.513 1101.5,111.513 1114,40.5C 1115.18,39.3159 1116.68,38.6493 1118.5,38.5C 1124.01,38.0471 1129.34,37.3804 1134.5,36.5 Z M 1156.5,74.5 C 1170.62,74.0491 1184.29,76.2157 1197.5,81C 1206.42,85.7743 1211.09,93.2743 1211.5,103.5C 1209.14,124.371 1197.81,137.871 1177.5,144C 1163.81,148.671 1149.81,150.838 1135.5,150.5C 1140.37,125.595 1144.71,100.595 1148.5,75.5C 1151.39,75.8064 1154.05,75.4731 1156.5,74.5 Z"/></g>
<g><path style="opacity:0.98" fill="#487bff" d="M 21.5,39.5 C 73.8333,39.5 126.167,39.5 178.5,39.5C 176.824,51.8863 174.824,64.2197 172.5,76.5C 152.924,76.1737 133.424,76.5071 114,77.5C 103.507,136.125 93.3404,194.792 83.5,253.5C 69.4841,253.833 55.4841,253.499 41.5,252.5C 52.3479,193.927 62.6812,135.26 72.5,76.5C 53.5,76.5 34.5,76.5 15.5,76.5C 17.3918,64.1494 19.3918,51.8161 21.5,39.5 Z"/></g>
<g><path style="opacity:0.97" fill="#487bff" d="M 1005.5,89.5 C 1047.06,90.6588 1064.56,111.659 1058,152.5C 1054.09,163.083 1047.25,171.249 1037.5,177C 1021.78,185.097 1005.11,190.097 987.5,192C 974.897,193.828 962.231,194.661 949.5,194.5C 951.372,204.212 957.039,210.712 966.5,214C 978.371,218.26 990.371,218.593 1002.5,215C 1012.64,212.787 1022.31,209.287 1031.5,204.5C 1035.54,216.775 1039.04,229.108 1042,241.5C 1015.75,255.394 987.917,259.894 958.5,255C 933.26,250.09 917.427,235.257 911,210.5C 905.737,179.138 912.07,150.471 930,124.5C 949.905,101.583 975.071,89.9161 1005.5,89.5 Z M 992.5,128.5 C 1000.19,127.736 1007.52,128.902 1014.5,132C 1019.8,137.797 1019.8,143.631 1014.5,149.5C 1006.5,155.497 997.498,159.33 987.5,161C 975.489,163.505 963.489,164.672 951.5,164.5C 958.408,144.581 972.074,132.581 992.5,128.5 Z"/></g>
<g><path style="opacity:0.974" fill="#487bff" d="M 257.5,90.5 C 267.172,90.3335 276.839,90.5002 286.5,91C 312.333,95.5 327.5,110.667 332,136.5C 335.349,165.418 330.349,192.752 317,218.5C 304.788,238.196 287.288,250.363 264.5,255C 252.877,256.527 241.21,256.861 229.5,256C 204.108,251.608 188.942,236.775 184,211.5C 180.907,183.898 185.24,157.565 197,132.5C 210.473,108.861 230.64,94.8607 257.5,90.5 Z M 261.5,129.5 C 275.451,128.382 284.618,134.382 289,147.5C 291.504,166.141 288.504,183.807 280,200.5C 268.503,216.667 253.67,220.833 235.5,213C 227.935,205.974 224.935,197.308 226.5,187C 225.931,170.768 230.098,155.935 239,142.5C 245.166,135.673 252.666,131.339 261.5,129.5 Z"/></g>
<g><path style="opacity:0.971" fill="#487bff" d="M 572.5,90.5 C 584.505,90.3335 596.505,90.5001 608.5,91C 620.227,92.1161 630.393,96.6161 639,104.5C 644.354,111.729 647.188,119.896 647.5,129C 646.891,136.259 645.724,143.425 644,150.5C 639.802,162.76 635.802,175.094 632,187.5C 626.329,213.482 636.496,222.649 662.5,215C 667.029,213.486 671.195,211.319 675,208.5C 678.979,220.067 682.812,231.734 686.5,243.5C 668.584,255.251 648.917,259.418 627.5,256C 601.027,252.361 587.36,237.194 586.5,210.5C 587.005,204.121 587.838,197.787 589,191.5C 593.646,174.569 598.479,157.736 603.5,141C 602.225,133.846 597.891,130.179 590.5,130C 579.981,129.521 569.648,130.687 559.5,133.5C 557.504,120.552 556.338,107.552 556,94.5C 561.525,92.8325 567.025,91.4992 572.5,90.5 Z"/></g>
<g><path style="opacity:0.97" fill="#487bff" d="M 760.5,90.5 C 765.5,90.5 770.5,90.5 775.5,90.5C 779.5,131.834 783.5,173.167 787.5,214.5C 789.903,214.607 791.736,213.607 793,211.5C 823.997,178.475 839.83,139.142 840.5,93.5C 854.833,93.5 869.167,93.5 883.5,93.5C 880.906,160.519 852.906,214.019 799.5,254C 783.17,254.5 766.837,254.667 750.5,254.5C 744.313,200.481 737.979,146.481 731.5,92.5C 741.359,92.4431 751.026,91.7765 760.5,90.5 Z"/></g>
</svg>