<svg id="svg" version="1.1" xmlns="http://www.w3.org/2000/svg" xmlns:xlink="http://www.w3.org/1999/xlink" width="400" height="400" viewBox="0, 0, 400,400"><g id="svgg"><path id="path0" d="M122.425 17.991 C 59.370 24.108,12.971 85.941,24.831 148.047 C 25.139 149.658,25.489 151.592,25.609 152.344 C 26.868 160.226,32.331 174.699,37.486 183.811 C 62.779 228.515,114.583 249.998,163.571 236.099 C 210.678 222.733,243.760 178.609,243.749 129.158 C 243.734 63.023,187.679 11.661,122.425 17.991 M143.945 35.184 C 199.547 41.168,237.757 97.012,223.857 151.975 C 218.483 173.226,206.410 191.545,189.248 204.489 C 142.728 239.575,76.348 223.634,50.185 171.094 C 33.030 136.644,38.831 93.054,64.194 65.820 C 65.395 64.531,66.384 63.365,66.392 63.228 C 66.408 62.946,72.853 57.093,75.212 55.216 C 95.120 39.384,118.811 32.479,143.945 35.184 M133.398 65.891 C 120.408 67.543,109.152 72.972,101.390 81.327 C 97.735 85.262,97.453 84.197,104.004 91.214 C 110.875 98.574,109.985 98.266,113.679 94.571 C 129.065 79.186,154.105 78.714,156.643 93.762 C 158.053 102.122,153.446 110.352,143.750 116.794 C 132.609 124.196,128.905 131.150,128.604 145.222 L 128.435 153.140 137.167 153.035 L 145.898 152.930 146.094 146.875 L 146.289 140.820 147.814 137.766 C 149.672 134.044,152.456 131.114,157.268 127.818 C 172.385 117.465,178.648 104.614,175.990 89.407 C 173.055 72.614,155.733 63.050,133.398 65.891 M135.241 168.815 C 124.845 170.441,120.754 183.665,128.309 191.220 C 137.370 200.281,152.685 192.080,150.344 179.420 C 149.003 172.164,142.595 167.664,135.241 168.815 M229.685 210.131 C 215.432 214.466,212.036 242.031,223.208 262.694 C 227.224 270.121,225.509 268.234,263.144 306.641 C 269.286 312.909,270.003 314.043,273.634 323.242 C 276.530 330.578,277.111 332.758,279.547 345.426 C 279.747 346.469,283.301 346.721,284.894 345.805 C 285.890 345.232,283.203 333.051,280.262 324.805 C 280.108 324.375,284.882 328.945,290.870 334.961 C 306.500 350.663,309.026 351.720,315.293 345.186 C 321.384 338.835,323.420 327.534,321.238 312.191 C 320.482 306.875,320.567 307.030,318.415 307.037 C 314.959 307.047,314.744 307.217,315.028 309.722 C 317.280 329.563,314.590 337.591,307.508 332.167 C 305.459 330.598,281.162 306.142,276.132 300.586 L 274.364 298.633 272.313 289.258 C 261.393 239.347,253.775 220.025,242.021 212.424 C 238.340 210.043,233.147 209.078,229.685 210.131 M235.947 220.566 C 245.758 225.474,253.632 239.763,260.562 265.234 C 261.573 268.952,266.386 288.112,266.989 290.820 C 267.087 291.260,265.509 289.894,263.380 287.695 C 261.300 285.547,255.897 280.010,251.373 275.391 C 233.531 257.173,231.763 255.239,228.209 250.055 C 217.224 234.032,222.520 213.849,235.947 220.566 " stroke="none" fill="#ec1c24" fill-rule="evenodd"></path><path id="path1" d="M211.523 50.391 C 213.232 52.109,214.718 53.516,214.825 53.516 C 214.933 53.516,213.623 52.109,211.914 50.391 C 210.205 48.672,208.720 47.266,208.612 47.266 C 208.505 47.266,209.815 48.672,211.523 50.391 M55.639 49.707 L 54.492 50.977 55.762 49.829 C 56.460 49.198,57.031 48.627,57.031 48.560 C 57.031 48.258,56.709 48.524,55.639 49.707 M67.755 61.816 L 66.211 63.477 67.871 61.932 C 68.784 61.083,69.531 60.336,69.531 60.272 C 69.531 59.977,69.191 60.272,67.755 61.816 M200.781 63.867 C 201.510 64.619,202.194 65.234,202.302 65.234 C 202.409 65.234,201.901 64.619,201.172 63.867 C 200.443 63.115,199.759 62.500,199.651 62.500 C 199.544 62.500,200.052 63.115,200.781 63.867 M168.164 74.609 C 169.003 75.469,169.778 76.172,169.885 76.172 C 169.993 76.172,169.394 75.469,168.555 74.609 C 167.716 73.750,166.941 73.047,166.834 73.047 C 166.726 73.047,167.325 73.750,168.164 74.609 M102.323 79.980 L 100.977 81.445 102.441 80.099 C 103.247 79.359,103.906 78.700,103.906 78.634 C 103.906 78.336,103.576 78.617,102.323 79.980 M101.172 88.477 C 102.339 89.658,103.382 90.625,103.489 90.625 C 103.596 90.625,102.729 89.658,101.563 88.477 C 100.396 87.295,99.353 86.328,99.245 86.328 C 99.138 86.328,100.005 87.295,101.172 88.477 M113.452 94.629 L 112.305 95.898 113.574 94.751 C 114.758 93.682,115.023 93.359,114.722 93.359 C 114.654 93.359,114.083 93.931,113.452 94.629 M199.404 195.410 L 196.680 198.242 199.512 195.518 C 201.069 194.020,202.344 192.746,202.344 192.686 C 202.344 192.400,201.934 192.780,199.404 195.410 M211.719 207.227 C 210.118 208.838,208.897 210.156,209.004 210.156 C 209.111 210.156,210.509 208.838,212.109 207.227 C 213.710 205.615,214.932 204.297,214.824 204.297 C 214.717 204.297,213.319 205.615,211.719 207.227 M246.484 216.211 C 247.213 216.963,247.897 217.578,248.005 217.578 C 248.112 217.578,247.604 216.963,246.875 216.211 C 246.146 215.459,245.462 214.844,245.355 214.844 C 245.247 214.844,245.756 215.459,246.484 216.211 M241.390 224.707 C 242.348 225.728,243.183 226.563,243.245 226.563 C 243.539 226.563,243.229 226.212,241.504 224.593 L 239.648 222.852 241.390 224.707 M245.117 269.141 C 246.175 270.215,247.129 271.094,247.236 271.094 C 247.344 271.094,246.566 270.215,245.508 269.141 C 244.450 268.066,243.496 267.188,243.389 267.188 C 243.281 267.188,244.059 268.066,245.117 269.141 M249.609 273.633 C 250.776 274.814,251.819 275.781,251.926 275.781 C 252.034 275.781,251.167 274.814,250.000 273.633 C 248.833 272.451,247.790 271.484,247.683 271.484 C 247.576 271.484,248.442 272.451,249.609 273.633 M233.984 277.148 C 235.151 278.330,236.194 279.297,236.301 279.297 C 236.409 279.297,235.542 278.330,234.375 277.148 C 233.208 275.967,232.165 275.000,232.058 275.000 C 231.951 275.000,232.817 275.967,233.984 277.148 M238.477 281.641 C 239.535 282.715,240.488 283.594,240.596 283.594 C 240.703 283.594,239.925 282.715,238.867 281.641 C 237.809 280.566,236.856 279.688,236.748 279.688 C 236.641 279.688,237.418 280.566,238.477 281.641 M263.477 287.891 C 265.401 289.824,267.064 291.406,267.171 291.406 C 267.279 291.406,265.792 289.824,263.867 287.891 C 261.943 285.957,260.280 284.375,260.173 284.375 C 260.065 284.375,261.552 285.957,263.477 287.891 M253.320 296.875 C 255.676 299.238,257.692 301.172,257.799 301.172 C 257.907 301.172,256.067 299.238,253.711 296.875 C 251.355 294.512,249.339 292.578,249.232 292.578 C 249.125 292.578,250.964 294.512,253.320 296.875 M281.445 306.250 C 283.801 308.613,285.817 310.547,285.924 310.547 C 286.032 310.547,284.192 308.613,281.836 306.250 C 279.480 303.887,277.464 301.953,277.357 301.953 C 277.250 301.953,279.089 303.887,281.445 306.250 M266.406 310.278 C 266.406 310.346,266.978 310.917,267.676 311.548 L 268.945 312.695 267.798 311.426 C 266.729 310.242,266.406 309.977,266.406 310.278 M299.414 324.609 C 302.201 327.402,304.569 329.688,304.676 329.688 C 304.784 329.688,302.591 327.402,299.805 324.609 C 297.018 321.816,294.650 319.531,294.543 319.531 C 294.435 319.531,296.627 321.816,299.414 324.609 M285.156 329.492 C 286.323 330.674,287.366 331.641,287.473 331.641 C 287.581 331.641,286.714 330.674,285.547 329.492 C 284.380 328.311,283.337 327.344,283.230 327.344 C 283.122 327.344,283.989 328.311,285.156 329.492 M289.648 333.984 C 290.707 335.059,291.660 335.938,291.768 335.938 C 291.875 335.938,291.097 335.059,290.039 333.984 C 288.981 332.910,288.027 332.031,287.920 332.031 C 287.813 332.031,288.590 332.910,289.648 333.984 " stroke="none" fill="#f01c24" fill-rule="evenodd"></path></g></svg>